<?xml version="1.0" encoding="utf-8"?>
<svg viewBox="0 0 500 500" xmlns="http://www.w3.org/2000/svg" xmlns:bx="https://boxy-svg.com">
  <defs>
    <path d="M0 0L313 0L313 313L0 313L0 0Z" id="path_1"/>
  </defs>
  <g transform="matrix(0.853606, 0, 0, 0.86621, 58.868458, 310.042175)">
    <path d="M 196.056 -281.742 C 199.522 -356.879 259.827 -339.41 391.679 -321.511 C 523.531 -303.612 486.973 -100.347 447.433 -37.972 C 407.893 24.403 249.322 -62.627 210.407 -94.111 C 171.492 -125.595 192.59 -206.605 196.056 -281.742 Z" id="Ellipse-3" fill="#004B9E" fill-rule="evenodd" stroke="none" bx:origin="0.46 0.554"/>
    <path d="M 148.544 90.102 C 238.866 21.031 227.083 -35.239 297.544 -58.898 C 368.005 -82.557 454.058 -36.052 397.465 89.229 C 340.872 214.51 284.945 214.786 215.756 201.605 C 146.567 188.424 58.222 159.173 148.544 90.102 Z" id="Ellipse-4" fill="#006FBB" fill-rule="evenodd" stroke="none"/>
    <path d="M -51.734 -81.776 C -17.117 -162.699 3.779 -225.063 85.06 -224.389 C 166.341 -223.715 100.072 -131.395 245.382 -64.066 C 317.814 -30.505 126.052 236.223 33.109 154.867 C -59.834 73.511 -86.876 0.374 -51.734 -81.776 Z" id="Ellipse-2" fill="#005ABC" fill-rule="evenodd" stroke="none" style=""/>
    <path d="M -7.599 -217.386 C 26.339 -349.818 95.665 -357.634 147.382 -351.068 C 199.099 -344.502 243.936 -250.933 253.19 -220.101 C 325.206 19.846 160.159 -18.312 78.114 -78.378 C -3.931 -138.444 -22.944 -157.507 -7.599 -217.386 Z" id="path-1" fill-rule="evenodd" style="fill: rgb(47, 162, 215);"/>
    <path d="M 294.316 -13.223 C 343.654 -92.034 419.063 -98.7 434.659 -94.954 C 450.255 -91.208 507.374 -87.568 509.728 12.086 C 512.406 125.47 463.846 164.524 326.761 149.762 C 189.676 135 247.8 61.08 294.316 -13.223 Z" id="path-2" fill-rule="evenodd" style="fill: rgb(47, 114, 215);"/>
    <path d="M 373.856 -158.747 L 243.44 -130.039 L 217.356 -177.653 L 113.023 -187.521 L 130.068 23.837 L 358.605 23.837 L 373.856 -158.747 Z" id="Shape" fill="#FFFFFF" fill-rule="evenodd" stroke="none"/>
  </g>
</svg>